<?xml version="1.0" encoding="UTF-8"?>
<svg width="1000" height="700" xmlns="http://www.w3.org/2000/svg">
  <defs>
    <style>
      .title { font-family: 'Microsoft YaHei', sans-serif; font-size: 22px; font-weight: bold; fill: #1E3A8A; }
      .header { font-family: 'Microsoft YaHei', sans-serif; font-size: 16px; font-weight: bold; fill: #2E5BFF; }
      .text { font-family: 'Microsoft YaHei', sans-serif; font-size: 14px; fill: #374151; }
      .math { font-family: 'Times New Roman', serif; font-size: 14px; fill: #1F2937; }
      .border { fill: none; stroke: #E5E7EB; stroke-width: 2; rx: 10; }
      .cell { fill: #F9FAFB; stroke: #E5E7EB; stroke-width: 1; }
      .header-cell { fill: #EFF6FF; stroke: #E5E7EB; stroke-width: 1; }
    </style>
  </defs>

  <!-- Background -->
  <rect width="1000" height="700" fill="#FFFFFF"/>

  <!-- Main border -->
  <rect class="border" x="50" y="50" width="900" height="600"/>

  <!-- Title -->
  <text x="500" y="90" text-anchor="middle" class="title">OmniEdge-Score 参数解析</text>
  <text x="500" y="115" text-anchor="middle" class="header">Parameter Breakdown</text>

  <!-- Separator line -->
  <line x1="100" y1="135" x2="900" y2="135" stroke="#E5E7EB" stroke-width="2"/>

  <!-- Table headers -->
  <rect class="header-cell" x="100" y="160" width="150" height="40"/>
  <text x="175" y="185" text-anchor="middle" class="header">参数</text>

  <rect class="header-cell" x="250" y="160" width="200" height="40"/>
  <text x="350" y="185" text-anchor="middle" class="header">名称</text>

  <rect class="header-cell" x="450" y="160" width="450" height="40"/>
  <text x="675" y="185" text-anchor="middle" class="header">说明</text>

  <!-- Row 1: R(t) -->
  <rect class="cell" x="100" y="200" width="150" height="60"/>
  <text x="175" y="235" text-anchor="middle" class="math">R(t)</text>

  <rect class="cell" x="250" y="200" width="200" height="60"/>
  <text x="350" y="235" text-anchor="middle" class="text">动态提及率</text>

  <rect class="cell" x="450" y="200" width="450" height="60"/>
  <text x="460" y="225" class="text">随时间变化的推荐概率函数，</text>
  <text x="460" y="245" class="text">反映品牌在AI回答中被提及的频率</text>

  <!-- Row 2: 语义对齐度 -->
  <rect class="cell" x="100" y="260" width="150" height="60"/>
  <text x="175" y="285" text-anchor="middle" class="math">V<tspan baseline-shift="sub" font-size="12">brand</tspan>·V<tspan baseline-shift="sub" font-size="12">ai</tspan></text>
  <text x="175" y="305" text-anchor="middle" class="text">语义对齐度</text>

  <rect class="cell" x="250" y="260" width="200" height="60"/>
  <text x="350" y="285" text-anchor="middle" class="text">向量相似度</text>
  <text x="350" y="305" text-anchor="middle" class="text">(余弦相似度)</text>

  <rect class="cell" x="450" y="260" width="450" height="60"/>
  <text x="460" y="285" class="text">品牌核心价值向量与AI输出向量的余弦相似度，</text>
  <text x="460" y="305" class="text">代表情感极性</text>

  <!-- Row 3: Authority Matrix -->
  <rect class="cell" x="100" y="320" width="150" height="60"/>
  <text x="175" y="345" text-anchor="middle" class="math">Σ(w<tspan baseline-shift="sub" font-size="12">i</tspan>·A<tspan baseline-shift="sub" font-size="12">i</tspan>)</text>

  <rect class="cell" x="250" y="320" width="200" height="60"/>
  <text x="350" y="345" text-anchor="middle" class="text">信源权威矩阵</text>
  <text x="350" y="365" text-anchor="middle" class="text">(Source Authority)</text>

  <rect class="cell" x="450" y="320" width="450" height="60"/>
  <text x="460" y="345" class="text">被引信源的PageRank权重与RAG检索权重的加权和</text>

  <!-- Row 4: Hallucination Penalty -->
  <rect class="cell" x="100" y="380" width="150" height="60"/>
  <text x="175" y="415" text-anchor="middle" class="math">H</text>

  <rect class="cell" x="250" y="380" width="200" height="60"/>
  <text x="350" y="415" text-anchor="middle" class="text">幻觉惩罚因子</text>

  <rect class="cell" x="450" y="380" width="450" height="60"/>
  <text x="460" y="405" class="text">品牌被AI错误描述的频次，</text>
  <text x="460" y="425" class="text">作为评分扣分项</text>

  <!-- Row 5: Weight Coefficients -->
  <rect class="cell" x="100" y="440" width="150" height="60"/>
  <text x="175" y="475" text-anchor="middle" class="math">α,β,γ,δ</text>

  <rect class="cell" x="250" y="440" width="200" height="60"/>
  <text x="350" y="465" text-anchor="middle" class="text">权重系数</text>
  <text x="350" y="485" text-anchor="middle" class="text">(Weight Coefficients)</text>

  <rect class="cell" x="450" y="440" width="450" height="60"/>
  <text x="460" y="465" class="text">由OmniEdge大模型动态调整的参数，</text>
  <text x="460" y="485" class="text">适应不同场景</text>

  <!-- Footer note -->
  <text x="500" y="550" text-anchor="middle" class="text" font-size="12" fill="#6B7280">
    评分范围 [0, 100]: >85 (统治级) | 50-85 (可见级) | &lt;50 (隐形级)
  </text>

  <!-- Logo -->
  <circle cx="850" cy="620" r="15" fill="#2E5BFF" opacity="0.1"/>
  <text x="850" y="627" text-anchor="middle" fill="#2E5BFF" font-family="Arial" font-size="12" font-weight="bold">OE</text>
</svg>