<?xml version="1.0" encoding="UTF-8"?>
<svg width="1000" height="600" xmlns="http://www.w3.org/2000/svg">
  <defs>
    <style>
      .title { font-family: 'Microsoft YaHei', sans-serif; font-size: 22px; font-weight: bold; fill: #1E3A8A; }
      .header { font-family: 'Microsoft YaHei', sans-serif; font-size: 16px; font-weight: bold; fill: #2E5BFF; }
      .text { font-family: 'Microsoft YaHei', sans-serif; font-size: 14px; fill: #374151; }
      .math { font-family: 'Times New Roman', serif; font-size: 14px; fill: #1F2937; }
      .border { fill: none; stroke: #E5E7EB; stroke-width: 2; rx: 10; }
      .cell { fill: #F9FAFB; stroke: #E5E7EB; stroke-width: 1; }
      .header-cell { fill: #EFF6FF; stroke: #E5E7EB; stroke-width: 1; }
    </style>
  </defs>

  <!-- Background -->
  <rect width="1000" height="600" fill="#FFFFFF"/>

  <!-- Main border -->
  <rect class="border" x="50" y="50" width="900" height="500"/>

  <!-- Title -->
  <text x="500" y="90" text-anchor="middle" class="title">OmniEdge-Score 参数解析</text>
  <text x="500" y="115" text-anchor="middle" class="header">Parameter Breakdown</text>

  <!-- Separator line -->
  <line x1="100" y1="135" x2="900" y2="135" stroke="#E5E7EB" stroke-width="2"/>

  <!-- Table headers -->
  <rect class="header-cell" x="100" y="160" width="120" height="40"/>
  <text x="160" y="185" text-anchor="middle" class="header">参数</text>

  <rect class="header-cell" x="220" y="160" width="180" height="40"/>
  <text x="310" y="185" text-anchor="middle" class="header">名称</text>

  <rect class="header-cell" x="400" y="160" width="450" height="40"/>
  <text x="625" y="185" text-anchor="middle" class="header">说明</text>

  <!-- Row 1: R(t) -->
  <rect class="cell" x="100" y="200" width="120" height="70"/>
  <text x="160" y="225" text-anchor="middle" class="math">R(t)</text>
  <text x="160" y="245" text-anchor="middle" class="text">动态提及率</text>

  <rect class="cell" x="220" y="200" width="180" height="70"/>
  <text x="310" y="225" text-anchor="middle" class="text">Dynamic Recall Rate</text>

  <rect class="cell" x="400" y="200" width="450" height="70"/>
  <text x="410" y="225" class="text">随时间变化的推荐概率函数，</text>
  <text x="410" y="245" class="text">反映品牌在AI回答中被提及的频率</text>

  <!-- Row 2: 语义对齐度 -->
  <rect class="cell" x="100" y="270" width="120" height="70"/>
  <text x="160" y="295" text-anchor="middle" class="math">V<sub>brand</sub>·V<sub>ai</sub></text>
  <text x="160" y="315" text-anchor="middle" class="text">语义对齐度</text>

  <rect class="cell" x="220" y="270" width="180" height="70"/>
  <text x="310" y="295" text-anchor="middle" class="text">Vector Similarity</text>

  <rect class="cell" x="400" y="270" width="450" height="70"/>
  <text x="410" y="295" class="text">品牌核心价值向量与AI输出向量的余弦相似度，</text>
  <text x="410" y="315" class="text">代表情感极性</text>

  <!-- Row 3: Authority Matrix -->
  <rect class="cell" x="100" y="340" width="120" height="70"/>
  <text x="160" y="365" text-anchor="middle" class="math">Σ(w<sub>i</sub>·A<sub>i</sub>)</text>

  <rect class="cell" x="220" y="340" width="180" height="70"/>
  <text x="310" y="365" text-anchor="middle" class="text">Source Authority</text>

  <rect class="cell" x="400" y="340" width="450" height="70"/>
  <text x="410" y="365" class="text">被引信源的PageRank权重与RAG检索权重的加权和</text>

  <!-- Row 4: Hallucination -->
  <rect class="cell" x="100" y="410" width="120" height="70"/>
  <text x="160" y="435" text-anchor="middle" class="math">H</text>
  <text x="160" y="455" text-anchor="middle" class="text">幻觉惩罚因子</text>

  <rect class="cell" x="220" y="410" width="180" height="70"/>
  <text x="310" y="435" text-anchor="middle" class="text">Hallucination Penalty</text>

  <rect class="cell" x="400" y="410" width="450" height="70"/>
  <text x="410" y="435" class="text">品牌被AI错误描述的频次，作为评分扣分项</text>

  <!-- Row 5: Weights -->
  <rect class="cell" x="100" y="480" width="120" height="70"/>
  <text x="160" y="505" text-anchor="middle" class="math">α,β,γ,δ</text>
  <text x="160" y="525" text-anchor="middle" class="text">权重系数</text>

  <rect class="cell" x="220" y="480" width="180" height="70"/>
  <text x="310" y="505" text-anchor="middle" class="text">Weight Coefficients</text>

  <rect class="cell" x="400" y="480" width="450" height="70"/>
  <text x="410" y="505" class="text">由OmniEdge大模型动态调整的参数，适应不同场景</text>

  <!-- Brand element -->
  <circle cx="850" cy="520" r="12" fill="#2E5BFF" opacity="0.1"/>
  <text x="850" y="525" text-anchor="middle" fill="#2E5BFF" font-family="Arial" font-size="10" font-weight="bold">OE</text>
</svg>